<svg xmlns="http://www.w3.org/2000/svg" viewBox="0 0 512 512" width="128" height="128" role="img" aria-label="Cídiks · avatar transparente"><title>Cídiks · avatar transparente</title><g transform="translate(81.92 81.92) scale(.68)"><path id="upper-sweep" fill="#244C3B" d="M 120,375 C 53,337 57,255 91,187 C 135,102 230,55 331,53 C 370,52 384,68 369,92 C 348,124 302,144 264,166 C 191,208 150,265 136,322 C 131,342 126,359 120,375 Z"/>
<path id="right-body" fill="#994A33" d="M 274,239 C 307,217 351,195 396,183 C 417,177 429,190 435,215 C 452,283 440,347 405,392 C 392,357 367,330 334,310 C 312,296 288,284 273,272 C 260,261 260,249 274,239 Z"/>
<path id="lower-return" fill="#244C3B" d="M 208,326 C 220,316 229,319 242,331 C 268,354 302,367 321,393 C 338,417 340,439 317,449 C 287,463 238,460 207,444 C 177,428 166,400 178,371 C 185,353 196,337 208,326 Z"/></g></svg>
